<svg width="59" height="55" viewBox="0 0 59 55" fill="none" xmlns="http://www.w3.org/2000/svg">
<path d="M25.0537 54.1208C24.2405 54.0191 23.4781 53.7861 22.7666 53.4217C22.0551 53.0574 21.4424 52.5448 20.9286 51.884L17.7016 47.9701C12.7777 42.215 8.5527 36.6505 5.02652 31.2767C1.50034 25.9029 0.0820384 20.4601 0.771602 14.9484C1.34247 10.3854 3.33354 6.75725 6.74481 4.06385C10.1561 1.37044 14.1206 0.306347 18.6384 0.871563C20.8973 1.15417 23.0729 1.91962 25.165 3.1679C27.2572 4.41618 29.1051 6.33364 30.7087 8.92029C33.126 6.83668 35.4345 5.43922 37.6342 4.72789C39.8339 4.01657 42.0858 3.80503 44.3898 4.09329C48.9528 4.66416 52.5782 6.67782 55.2659 10.1343C57.9537 13.5907 59.0121 17.6004 58.4413 22.1634C57.7517 27.6751 55.0023 32.5965 50.1932 36.9274C45.384 41.2584 39.9042 45.6317 33.7538 50.0472L29.6705 52.9777C29.0097 53.4916 28.2784 53.836 27.4764 54.011C26.6745 54.1859 25.8669 54.2226 25.0537 54.1208Z" fill="url(#paint0_linear_1_256)"/>
<defs>
<linearGradient id="paint0_linear_1_256" x1="-4" y1="-4.2961" x2="56.5" y2="51.2039" gradientUnits="userSpaceOnUse">
<stop stop-color="#FB64B6"/>
<stop offset="1" stop-color="#CD4A91"/>
</linearGradient>
</defs>
</svg>
