<svg width="236" height="74" viewBox="0 0 236 74" fill="none" xmlns="http://www.w3.org/2000/svg">
<path d="M2.384 68.1839C1.616 68.1839 1.04 68.0879 0.656 67.8959C0.272 67.7679 0.0799999 67.5119 0.0799999 67.1279C0.0799999 66.3599 1.232 65.7839 3.536 65.3999C5.904 64.9519 8.048 64.2159 9.968 63.1919C11.888 62.1039 13.168 60.4399 13.808 58.1999L27.344 13.9439C28.048 11.6399 28.144 10.1999 27.632 9.6239C27.184 8.9839 25.904 8.4399 23.792 7.9919C22.832 7.7999 22.192 7.5439 21.872 7.2239C21.552 6.9039 21.392 6.5199 21.392 6.0719C21.392 5.6879 21.68 5.4319 22.256 5.3039C22.832 5.1119 23.504 5.0159 24.272 5.0159C25.872 5.0159 27.152 5.0479 28.112 5.1119C29.136 5.1759 30.096 5.2719 30.992 5.3999C31.888 5.4639 32.976 5.4959 34.256 5.4959C35.728 5.4959 37.04 5.4639 38.192 5.3999C39.344 5.2719 40.528 5.1759 41.744 5.1119C42.96 5.0479 44.368 5.0159 45.968 5.0159C47.44 5.0159 48.176 5.3679 48.176 6.0719C48.176 6.5839 47.824 6.9679 47.12 7.2239C46.416 7.4159 45.52 7.5759 44.432 7.7039C42.768 7.8319 41.264 8.1199 39.92 8.5679C38.64 8.9519 37.552 9.5279 36.656 10.2959C35.76 10.9999 35.12 11.9919 34.736 13.2719L21.776 56.8559C21.072 59.2879 20.976 61.2399 21.488 62.7119C22 64.1199 23.44 64.8239 25.808 64.8239H33.488C37.008 64.8239 39.824 64.4719 41.936 63.7679C44.112 62.9999 45.808 62.0079 47.024 60.7919C48.24 59.5759 49.264 58.3599 50.096 57.1439C50.928 55.9279 51.856 54.5839 52.88 53.1119C53.2 52.7279 53.424 52.4719 53.552 52.3439C53.744 52.2159 54.032 52.1519 54.416 52.1519C54.736 52.1519 54.928 52.2479 54.992 52.4399C55.12 52.6319 55.184 52.9199 55.184 53.3039C55.184 53.7519 54.992 54.5519 54.608 55.7039C54.288 56.8559 53.872 58.1679 53.36 59.6399C52.848 61.0479 52.304 62.3919 51.728 63.6719C51.216 64.9519 50.736 65.9439 50.288 66.6479C50.032 67.0319 49.712 67.3839 49.328 67.7039C48.944 68.0239 48.528 68.1839 48.08 68.1839C44.432 68.1839 41.04 68.1519 37.904 68.0879C34.832 68.0239 31.92 67.9599 29.168 67.8959C26.416 67.8319 23.824 67.7679 21.392 67.7039C18.96 67.6399 16.624 67.6079 14.384 67.6079C12.016 67.6079 10.032 67.7039 8.432 67.8959C6.832 68.0879 4.816 68.1839 2.384 68.1839ZM171.996 69.0479C171.74 69.0479 171.516 68.8239 171.324 68.3759C171.196 67.9279 171.132 67.3519 171.132 66.6479C171.388 58.6479 171.452 50.6479 171.324 42.6479C171.26 34.5839 171.068 26.5519 170.748 18.5519C170.684 17.1439 170.364 16.4719 169.788 16.5359C169.276 16.5999 168.668 17.3679 167.964 18.8399C165.02 24.6639 162.172 30.4879 159.42 36.3119C156.732 42.0719 154.14 47.8639 151.644 53.6879C150.364 56.6959 149.564 58.9999 149.244 60.5999C148.924 62.1999 148.956 63.3199 149.34 63.9599C149.788 64.5999 150.46 65.0159 151.356 65.2079C152.316 65.3359 153.02 65.5279 153.468 65.7839C153.98 66.0399 154.236 66.3919 154.236 66.8399C154.236 67.2239 153.884 67.5119 153.18 67.7039C152.476 67.8959 151.74 67.9919 150.972 67.9919C149.372 67.9919 148.06 67.9599 147.036 67.8959C146.076 67.8319 145.116 67.7679 144.156 67.7039C143.26 67.7039 142.076 67.7039 140.604 67.7039C139.516 67.7039 138.652 67.7359 138.012 67.7999C137.436 67.9279 136.732 68.0239 135.9 68.0879C135.132 68.2159 133.948 68.2799 132.348 68.2799C130.812 68.2799 130.044 67.9599 130.044 67.3199C130.044 66.8719 130.332 66.5199 130.908 66.2639C131.484 65.9439 132.316 65.6879 133.404 65.4959C135.26 65.1759 136.86 64.6639 138.204 63.9599C139.548 63.1919 140.828 62.0399 142.044 60.5039C143.324 58.9039 144.7 56.6959 146.172 53.8799L165.276 16.6319C166.108 15.0319 166.524 13.6239 166.524 12.4079C166.524 11.1919 165.916 10.1999 164.7 9.4319C163.548 8.5999 161.66 8.0239 159.036 7.7039C157.628 7.5119 156.636 7.3199 156.06 7.1279C155.548 6.8719 155.292 6.5199 155.292 6.0719C155.292 5.5599 155.644 5.1759 156.348 4.9199C157.116 4.6639 158.108 4.5359 159.324 4.5359C160.412 4.5359 161.916 4.5679 163.836 4.6319C165.756 4.6959 167.74 4.7919 169.788 4.9199C171.836 4.9839 173.532 5.0159 174.876 5.0159C175.708 5.0159 176.316 5.2399 176.7 5.6879C177.148 6.0719 177.436 6.7439 177.564 7.7039C177.692 8.5999 177.724 9.8799 177.66 11.5439L178.428 52.0559C178.492 53.4639 178.78 54.0719 179.292 53.8799C179.868 53.6879 180.54 53.1759 181.308 52.3439C185.276 47.8639 189.116 43.4479 192.828 39.0959C196.604 34.6799 200.348 30.2639 204.06 25.8479C207.836 21.4319 211.612 16.9839 215.388 12.5039C216.092 11.1599 216.636 10.0719 217.02 9.2399C217.404 8.3439 217.852 7.4799 218.364 6.6479C218.876 5.7519 219.548 5.3039 220.38 5.3039H224.028C224.54 5.3039 225.34 5.2399 226.428 5.1119C227.516 4.9839 228.636 4.8559 229.788 4.7279C230.94 4.5999 231.804 4.5359 232.38 4.5359C233.148 4.5359 233.852 4.6639 234.492 4.9199C235.196 5.1759 235.548 5.5279 235.548 5.9759C235.548 6.4879 235.26 6.9359 234.684 7.3199C234.172 7.6399 233.148 7.8959 231.612 8.0879C229.692 8.3439 228.188 8.6639 227.1 9.0479C226.076 9.4319 225.276 10.1679 224.7 11.2559C224.124 12.2799 223.484 13.9439 222.78 16.2479C221.052 22.1359 219.484 28.2159 218.076 34.4879C216.668 40.6959 215.388 46.8399 214.236 52.9199C213.404 57.2079 213.308 60.2479 213.948 62.0399C214.652 63.8319 216.06 64.8879 218.172 65.2079C219.132 65.3359 219.772 65.5279 220.092 65.7839C220.476 66.0399 220.668 66.3919 220.668 66.8399C220.668 67.0959 220.38 67.3519 219.804 67.6079C219.228 67.8639 218.556 67.9919 217.788 67.9919C216.188 67.9919 214.78 67.8959 213.564 67.7039C212.412 67.5759 211.26 67.4159 210.108 67.2239C208.956 67.0319 207.644 66.9359 206.172 66.9359C204.7 66.9359 203.484 67.0319 202.524 67.2239C201.628 67.4159 200.668 67.5759 199.644 67.7039C198.684 67.8959 197.404 67.9919 195.804 67.9919C195.036 67.9919 194.46 67.8959 194.076 67.7039C193.756 67.5119 193.596 67.2239 193.596 66.8399C193.596 66.4559 193.884 66.1359 194.46 65.8799C195.1 65.5599 195.932 65.2719 196.956 65.0159C199.004 64.5039 200.54 63.7039 201.564 62.6159C202.652 61.5279 203.548 59.8959 204.252 57.7199C205.852 52.8559 207.26 48.3759 208.476 44.2799C209.692 40.1199 210.812 36.0559 211.836 32.0879C212.924 28.0559 214.012 23.8639 215.1 19.5119C215.228 19.1919 215.132 18.9999 214.812 18.9359C214.556 18.8719 214.268 18.9999 213.948 19.3199L185.628 52.1519L174.396 66.7439C173.756 67.5119 173.244 68.0879 172.86 68.4719C172.476 68.8559 172.188 69.0479 171.996 69.0479Z" fill="url(#paint0_linear_1_260)"/>
<mask id="mask0_1_260" style="mask-type:alpha" maskUnits="userSpaceOnUse" x="61" y="0" width="74" height="74">
<rect x="69.732" y="1.90735e-06" width="65.5634" height="65.5634" transform="rotate(7.13115 69.732 1.90735e-06)" fill="#D9D9D9"/>
</mask>
<g mask="url(#mask0_1_260)">
<path d="M95.0537 61.1208C94.2405 61.0191 93.4781 60.7861 92.7666 60.4217C92.0551 60.0574 91.4424 59.5448 90.9286 58.884L87.7016 54.9701C82.7777 49.215 78.5527 43.6505 75.0265 38.2767C71.5003 32.9029 70.082 27.4601 70.7716 21.9484C71.3425 17.3854 73.3335 13.7573 76.7448 11.0638C80.1561 8.37044 84.1206 7.30635 88.6384 7.87156C90.8973 8.15417 93.0729 8.91962 95.165 10.1679C97.2572 11.4162 99.1051 13.3336 100.709 15.9203C103.126 13.8367 105.434 12.4392 107.634 11.7279C109.834 11.0166 112.086 10.805 114.39 11.0933C118.953 11.6642 122.578 13.6778 125.266 17.1343C127.954 20.5907 129.012 24.6004 128.441 29.1634C127.752 34.6751 125.002 39.5965 120.193 43.9274C115.384 48.2584 109.904 52.6317 103.754 57.0472L99.6705 59.9777C99.0097 60.4916 98.2784 60.836 97.4764 61.011C96.6745 61.1859 95.8669 61.2226 95.0537 61.1208Z" fill="url(#paint1_linear_1_260)"/>
</g>
<defs>
<linearGradient id="paint0_linear_1_260" x1="2" y1="35.7039" x2="230" y2="35.7039" gradientUnits="userSpaceOnUse">
<stop stop-color="#A684FF"/>
<stop offset="1" stop-color="#7C86FF"/>
</linearGradient>
<linearGradient id="paint1_linear_1_260" x1="66" y1="2.7039" x2="126.5" y2="58.2039" gradientUnits="userSpaceOnUse">
<stop stop-color="#FB64B6"/>
<stop offset="1" stop-color="#CD4A91"/>
</linearGradient>
</defs>
</svg>
